<svg width="308" height="62" viewBox="0 0 308 62" fill="none" xmlns="http://www.w3.org/2000/svg">
<path d="M100.088 27.9323C106.887 27.9323 111.592 24.0733 111.592 15.4415H99.6758V19.2666H106.372C106.338 19.4697 106.304 19.6728 106.235 19.842C105.617 22.2793 103.179 23.7348 100.088 23.7348C95.967 23.7348 92.7733 20.1467 92.7733 15.9831C92.7733 11.8195 95.967 8.36671 100.088 8.36671C102.148 8.36671 104.037 9.24683 105.376 10.6685L108.845 7.72355C106.784 5.45557 103.659 4 100.088 4C93.2884 4 88 9.34838 88 15.9831C88 22.5839 93.2884 27.9323 100.088 27.9323Z" fill="white"/>
<path d="M122.371 27.9323C126.938 27.9323 130.99 24.6827 130.99 19.7066C130.99 14.6968 126.938 11.4471 122.371 11.4471C117.804 11.4471 113.751 14.6968 113.751 19.7066C113.751 24.6827 117.804 27.9323 122.371 27.9323ZM122.371 23.8025C120.139 23.8025 118.319 22.1439 118.319 19.7066C118.319 17.2355 120.139 15.5769 122.371 15.5769C124.603 15.5769 126.423 17.2355 126.423 19.7066C126.423 22.1439 124.603 23.8025 122.371 23.8025Z" fill="white"/>
<path d="M147.171 27.6276H152.768L146.621 19.0296C150.605 18.2172 152.356 15.2384 152.356 11.921C152.356 8.09592 150.021 4.30466 144.595 4.30466H135.151V27.6276H139.925V19.2666H141.539L147.171 27.6276ZM139.925 8.46827H144.114C146.346 8.46827 147.548 10.1608 147.548 12.0226C147.548 13.8843 146.415 15.4753 143.737 15.4753H139.925V8.46827Z" fill="white"/>
<path d="M171.426 19.4697C171.426 14.6291 167.682 11.4471 163.115 11.4471C158.513 11.4471 154.599 14.6291 154.599 19.7405C154.599 24.615 158.204 27.9323 163.115 27.9323C165.931 27.9323 168.747 26.8491 170.258 24.8519L167.614 22.2454C166.652 23.3625 165.038 24.0056 163.424 24.0056C161.261 24.0056 159.75 22.9901 159.269 21.1622H171.357C171.391 20.4513 171.426 19.9097 171.426 19.4697ZM159.269 18.2849C159.75 16.1523 161.364 15.3061 163.184 15.3061C165.21 15.3061 166.79 16.4231 166.927 18.2849H159.269Z" fill="white"/>
<path d="M180.576 27.9323C183.873 27.9323 187.307 26.3075 187.307 22.9901C187.307 21.7038 186.826 19.3343 182.98 18.3188L180.336 17.6417C179.443 17.4048 178.756 17.0324 178.756 16.2877C178.756 15.4753 179.581 14.9676 180.611 14.9676C181.675 14.9676 182.568 15.543 182.568 16.5924H186.861C186.895 12.8688 183.461 11.4471 180.542 11.4471C176.833 11.4471 174.258 13.7151 174.258 16.1523C174.258 17.811 174.807 20.079 178.928 21.1622L181.057 21.67C182.259 21.9746 182.809 22.3131 182.809 22.9901C182.809 23.9041 181.813 24.4457 180.508 24.4457C178.928 24.4457 178.138 23.464 178.138 22.5501H173.914C173.949 26.0367 177.211 27.9323 180.576 27.9323Z" fill="white"/>
<path d="M200.216 11.8533H196.817V6.06488H192.318V11.8533H189.399V15.2722H192.318V27.6276H196.817V15.2722H200.216V11.8533Z" fill="white"/>
<path d="M214.899 11.8533V13.7489C213.766 12.158 211.602 11.481 209.748 11.481C205.627 11.481 201.884 14.6291 201.884 19.7066C201.884 24.7842 205.627 27.9323 209.748 27.9323C211.534 27.9323 213.766 27.2214 214.899 25.6643V27.6276H219.398V11.8533H214.899ZM210.606 23.8025C208.34 23.8025 206.451 22.0085 206.451 19.7066C206.451 17.3709 208.34 15.6446 210.606 15.6446C212.701 15.6446 214.762 17.2694 214.762 19.7066C214.762 22.11 212.804 23.8025 210.606 23.8025Z" fill="white"/>
<path d="M234.894 11.8533V19.9436C234.894 22.787 232.902 23.6333 231.288 23.6333C229.743 23.6333 228.232 22.5162 228.232 20.0451V11.8533H223.733V20.519C223.699 25.2581 225.897 28 230.086 28C231.666 28 234.207 27.1199 234.894 25.055V27.6276H239.393V11.8533H234.894Z" fill="white"/>
<path d="M253.096 11.4471C251.104 11.4471 249.284 12.5642 248.391 15.2045V11.8533H243.927V27.6276H248.425V22.2116C248.425 17.7094 250.005 15.6107 252.306 15.6107C252.855 15.6107 253.645 15.6784 254.607 16.1862L255.637 11.9549C254.916 11.5825 253.954 11.4471 253.096 11.4471Z" fill="white"/>
<path d="M269.73 11.8533V13.7489C268.597 12.158 266.433 11.481 264.579 11.481C260.458 11.481 256.715 14.6291 256.715 19.7066C256.715 24.7842 260.458 27.9323 264.579 27.9323C266.365 27.9323 268.597 27.2214 269.73 25.6643V27.6276H274.228V11.8533H269.73ZM265.437 23.8025C263.171 23.8025 261.282 22.0085 261.282 19.7066C261.282 17.3709 263.171 15.6446 265.437 15.6446C267.532 15.6446 269.593 17.2694 269.593 19.7066C269.593 22.11 267.635 23.8025 265.437 23.8025Z" fill="white"/>
<path d="M288.077 11.4471C286.497 11.4471 283.956 12.3611 283.269 14.4937V11.8533H278.77V27.6276H283.269V19.5374C283.269 16.6601 285.261 15.8138 286.875 15.8138C288.42 15.8138 289.931 16.9309 289.931 19.4358V27.6276H294.43V18.9619C294.464 14.2228 292.266 11.4471 288.077 11.4471Z" fill="white"/>
<path d="M308 11.8533H304.6V6.06488H300.102V11.8533H297.183V15.2722H300.102V27.6276H304.6V15.2722H308V11.8533Z" fill="white"/>
<path fill-rule="evenodd" clip-rule="evenodd" d="M32 16.3863C28.0372 16.3863 24.2897 15.7619 21.4481 14.6282C18.1848 13.3263 16.3875 11.4282 16.3876 9.28342C16.3876 7.13875 18.1849 5.24066 21.4482 3.93878C23.4813 3.12774 25.9794 2.57907 28.6871 2.33148C28.252 1.7631 28.2921 0.94524 28.8103 0.424548C29.3735 -0.141516 30.2867 -0.141516 30.85 0.424548L33.0197 2.60545C33.583 3.17152 33.583 4.0894 33.0197 4.65546L30.8499 6.83622C30.5683 7.11932 30.1991 7.2608 29.83 7.2608C29.4609 7.2608 29.0918 7.11932 28.8101 6.83622C28.3867 6.41048 28.2818 5.78585 28.4953 5.26153C26.2425 5.49927 24.1862 5.9656 22.5124 6.63342C20.1207 7.58754 19.2722 8.65734 19.2722 9.28342C19.2722 9.90949 20.1207 10.9793 22.5124 11.9334C25.0234 12.9352 28.3929 13.4869 32 13.4869C35.6071 13.4869 38.9766 12.9352 41.4877 11.9334C43.8793 10.9793 44.7279 9.90964 44.7279 9.28342C44.7279 8.26725 42.7568 6.76273 38.9897 5.85311C38.2152 5.66611 37.7382 4.88348 37.9242 4.10505C38.1102 3.32662 38.8892 2.8471 39.6635 3.03424C44.7153 4.25392 47.6125 6.53181 47.6125 9.28356C47.6125 11.4282 45.8152 13.3263 42.552 14.6282C39.7103 15.7619 35.9628 16.3863 32 16.3863ZM54.0449 22.9316C62.2728 25.5632 64 28.8933 64 31.2235C64 31.2615 63.9994 31.2998 63.9986 31.3382C63.9677 39.5286 60.6348 47.2209 54.6036 53.0091C48.5626 58.807 40.535 62 32 62C23.465 62 15.4376 58.807 9.39636 53.0091C3.36525 47.2209 0.0323082 39.5286 0.00144233 31.3382C0.000576933 31.2998 0 31.2615 0 31.2235C0 28.8933 1.72719 25.5632 9.95526 22.9314C15.8645 21.0416 23.6935 20.0008 32.0001 20.0008C37.5784 20.0008 42.9402 20.4709 47.651 21.3515L51.2414 15.8698C51.6795 15.2011 52.5738 15.0158 53.2392 15.456C53.9045 15.8963 54.0889 16.7952 53.6508 17.4639L50.6818 21.9969C51.8589 22.2804 52.9833 22.5921 54.0449 22.9316ZM61.1153 31.2235C61.1153 29.3804 58.071 27.2618 53.1701 25.6943C51.8716 25.279 50.4716 24.9072 48.9899 24.5802L43.0643 33.6274C47.4948 34.1688 51.5381 35.0324 54.8448 36.1683C58.7542 34.6827 61.1153 32.8463 61.1153 31.2235ZM14.3212 37.7103C19.4077 38.9025 25.5414 39.5469 32 39.5469C33.2755 39.5469 34.5381 39.5215 35.7825 39.472L38.0137 36.0656C36.0509 35.9376 34.0371 35.871 31.9996 35.871C25.5818 35.871 19.3965 36.5261 14.3212 37.7103ZM49.6789 37.7103C47.1254 37.1145 44.2905 36.6531 41.2866 36.3413L39.3765 39.2577C43.0908 38.96 46.5792 38.4368 49.6789 37.7103ZM31.9999 22.9001C23.9821 22.9001 16.4638 23.8925 10.8297 25.6943C5.92899 27.2616 2.88466 29.3804 2.88466 31.2235C2.88466 32.8465 5.2459 34.6828 9.15534 36.1683C15.077 34.134 23.3596 32.9717 31.9994 32.9717C34.6627 32.9717 37.2912 33.083 39.828 33.2953L45.9243 23.9876C41.688 23.2772 36.9391 22.9001 31.9999 22.9001ZM3.41054 36.5064C5.9962 49.3603 17.8318 59.1008 32 59.1008C46.1682 59.1008 58.0038 49.3605 60.5895 36.5064C59.0919 37.547 56.9831 38.5758 54.0449 39.5154C48.1358 41.4053 40.3067 42.4461 32 42.4461C23.6933 42.4461 15.8643 41.4053 9.95512 39.5154C7.01694 38.5757 4.90811 37.5469 3.41054 36.5064Z" fill="#FFB84D"/>
<path d="M90.352 39.242V49H89.078V39.242H90.352ZM94.0773 42.378V46.9C94.0773 47.2733 94.1566 47.5393 94.3153 47.698C94.474 47.8473 94.7493 47.922 95.1413 47.922H96.0793V49H94.9313C94.222 49 93.69 48.8367 93.3353 48.51C92.9806 48.1833 92.8033 47.6467 92.8033 46.9V42.378H91.8093V41.328H92.8033V39.396H94.0773V41.328H96.0793V42.378H94.0773ZM97.1469 45.136C97.1469 44.352 97.3056 43.666 97.6229 43.078C97.9403 42.4807 98.3743 42.0187 98.9249 41.692C99.4849 41.3653 100.106 41.202 100.787 41.202C101.459 41.202 102.042 41.3467 102.537 41.636C103.032 41.9253 103.4 42.2893 103.643 42.728V41.328H104.931V49H103.643V47.572C103.391 48.02 103.013 48.3933 102.509 48.692C102.014 48.9813 101.436 49.126 100.773 49.126C100.092 49.126 99.4756 48.958 98.9249 48.622C98.3743 48.286 97.9403 47.8147 97.6229 47.208C97.3056 46.6013 97.1469 45.9107 97.1469 45.136ZM103.643 45.15C103.643 44.5713 103.526 44.0673 103.293 43.638C103.06 43.2087 102.742 42.882 102.341 42.658C101.949 42.4247 101.515 42.308 101.039 42.308C100.563 42.308 100.129 42.42 99.7369 42.644C99.3449 42.868 99.0323 43.1947 98.7989 43.624C98.5656 44.0533 98.4489 44.5573 98.4489 45.136C98.4489 45.724 98.5656 46.2373 98.7989 46.676C99.0323 47.1053 99.3449 47.4367 99.7369 47.67C100.129 47.894 100.563 48.006 101.039 48.006C101.515 48.006 101.949 47.894 102.341 47.67C102.742 47.4367 103.06 47.1053 103.293 46.676C103.526 46.2373 103.643 45.7287 103.643 45.15ZM108.358 38.64V49H107.084V38.64H108.358ZM111.187 40.082C110.945 40.082 110.739 39.998 110.571 39.83C110.403 39.662 110.319 39.4567 110.319 39.214C110.319 38.9713 110.403 38.766 110.571 38.598C110.739 38.43 110.945 38.346 111.187 38.346C111.421 38.346 111.617 38.43 111.775 38.598C111.943 38.766 112.027 38.9713 112.027 39.214C112.027 39.4567 111.943 39.662 111.775 39.83C111.617 39.998 111.421 40.082 111.187 40.082ZM111.803 41.328V49H110.529V41.328H111.803ZM113.498 45.136C113.498 44.352 113.657 43.666 113.974 43.078C114.292 42.4807 114.726 42.0187 115.276 41.692C115.836 41.3653 116.457 41.202 117.138 41.202C117.81 41.202 118.394 41.3467 118.888 41.636C119.383 41.9253 119.752 42.2893 119.994 42.728V41.328H121.282V49H119.994V47.572C119.742 48.02 119.364 48.3933 118.86 48.692C118.366 48.9813 117.787 49.126 117.124 49.126C116.443 49.126 115.827 48.958 115.276 48.622C114.726 48.286 114.292 47.8147 113.974 47.208C113.657 46.6013 113.498 45.9107 113.498 45.136ZM119.994 45.15C119.994 44.5713 119.878 44.0673 119.644 43.638C119.411 43.2087 119.094 42.882 118.692 42.658C118.3 42.4247 117.866 42.308 117.39 42.308C116.914 42.308 116.48 42.42 116.088 42.644C115.696 42.868 115.384 43.1947 115.15 43.624C114.917 44.0533 114.8 44.5573 114.8 45.136C114.8 45.724 114.917 46.2373 115.15 46.676C115.384 47.1053 115.696 47.4367 116.088 47.67C116.48 47.894 116.914 48.006 117.39 48.006C117.866 48.006 118.3 47.894 118.692 47.67C119.094 47.4367 119.411 47.1053 119.644 46.676C119.878 46.2373 119.994 45.7287 119.994 45.15ZM127.173 41.188C128.107 41.188 128.863 41.4727 129.441 42.042C130.02 42.602 130.309 43.414 130.309 44.478V49H129.049V44.66C129.049 43.8947 128.858 43.3113 128.475 42.91C128.093 42.4993 127.57 42.294 126.907 42.294C126.235 42.294 125.699 42.504 125.297 42.924C124.905 43.344 124.709 43.9553 124.709 44.758V49H123.435V41.328H124.709V42.42C124.961 42.028 125.302 41.7247 125.731 41.51C126.17 41.2953 126.651 41.188 127.173 41.188ZM139.245 42.378H137.635V49H136.361V42.378H135.367V41.328H136.361V40.782C136.361 39.9233 136.58 39.298 137.019 38.906C137.467 38.5047 138.181 38.304 139.161 38.304V39.368C138.601 39.368 138.204 39.48 137.971 39.704C137.747 39.9187 137.635 40.278 137.635 40.782V41.328H139.245V42.378ZM144.076 49.126C143.358 49.126 142.704 48.9627 142.116 48.636C141.538 48.3093 141.08 47.8473 140.744 47.25C140.418 46.6433 140.254 45.9433 140.254 45.15C140.254 44.366 140.422 43.6753 140.758 43.078C141.104 42.4713 141.57 42.0093 142.158 41.692C142.746 41.3653 143.404 41.202 144.132 41.202C144.86 41.202 145.518 41.3653 146.106 41.692C146.694 42.0093 147.156 42.4667 147.492 43.064C147.838 43.6613 148.01 44.3567 148.01 45.15C148.01 45.9433 147.833 46.6433 147.478 47.25C147.133 47.8473 146.662 48.3093 146.064 48.636C145.467 48.9627 144.804 49.126 144.076 49.126ZM144.076 48.006C144.534 48.006 144.963 47.8987 145.364 47.684C145.766 47.4693 146.088 47.1473 146.33 46.718C146.582 46.2887 146.708 45.766 146.708 45.15C146.708 44.534 146.587 44.0113 146.344 43.582C146.102 43.1527 145.784 42.8353 145.392 42.63C145 42.4153 144.576 42.308 144.118 42.308C143.652 42.308 143.222 42.4153 142.83 42.63C142.448 42.8353 142.14 43.1527 141.906 43.582C141.673 44.0113 141.556 44.534 141.556 45.15C141.556 45.7753 141.668 46.3027 141.892 46.732C142.126 47.1613 142.434 47.4833 142.816 47.698C143.199 47.9033 143.619 48.006 144.076 48.006ZM153.031 49.126C152.313 49.126 151.659 48.9627 151.071 48.636C150.493 48.3093 150.035 47.8473 149.699 47.25C149.373 46.6433 149.209 45.9433 149.209 45.15C149.209 44.366 149.377 43.6753 149.713 43.078C150.059 42.4713 150.525 42.0093 151.113 41.692C151.701 41.3653 152.359 41.202 153.087 41.202C153.815 41.202 154.473 41.3653 155.061 41.692C155.649 42.0093 156.111 42.4667 156.447 43.064C156.793 43.6613 156.965 44.3567 156.965 45.15C156.965 45.9433 156.788 46.6433 156.433 47.25C156.088 47.8473 155.617 48.3093 155.019 48.636C154.422 48.9627 153.759 49.126 153.031 49.126ZM153.031 48.006C153.489 48.006 153.918 47.8987 154.319 47.684C154.721 47.4693 155.043 47.1473 155.285 46.718C155.537 46.2887 155.663 45.766 155.663 45.15C155.663 44.534 155.542 44.0113 155.299 43.582C155.057 43.1527 154.739 42.8353 154.347 42.63C153.955 42.4153 153.531 42.308 153.073 42.308C152.607 42.308 152.177 42.4153 151.785 42.63C151.403 42.8353 151.095 43.1527 150.861 43.582C150.628 44.0113 150.511 44.534 150.511 45.15C150.511 45.7753 150.623 46.3027 150.847 46.732C151.081 47.1613 151.389 47.4833 151.771 47.698C152.154 47.9033 152.574 48.006 153.031 48.006ZM158.165 45.136C158.165 44.352 158.323 43.666 158.641 43.078C158.958 42.4807 159.392 42.0187 159.943 41.692C160.503 41.3653 161.128 41.202 161.819 41.202C162.416 41.202 162.971 41.342 163.485 41.622C163.998 41.8927 164.39 42.252 164.661 42.7V38.64H165.949V49H164.661V47.558C164.409 48.0153 164.035 48.3933 163.541 48.692C163.046 48.9813 162.467 49.126 161.805 49.126C161.123 49.126 160.503 48.958 159.943 48.622C159.392 48.286 158.958 47.8147 158.641 47.208C158.323 46.6013 158.165 45.9107 158.165 45.136ZM164.661 45.15C164.661 44.5713 164.544 44.0673 164.311 43.638C164.077 43.2087 163.76 42.882 163.359 42.658C162.967 42.4247 162.533 42.308 162.057 42.308C161.581 42.308 161.147 42.42 160.755 42.644C160.363 42.868 160.05 43.1947 159.817 43.624C159.583 44.0533 159.467 44.5573 159.467 45.136C159.467 45.724 159.583 46.2373 159.817 46.676C160.05 47.1053 160.363 47.4367 160.755 47.67C161.147 47.894 161.581 48.006 162.057 48.006C162.533 48.006 162.967 47.894 163.359 47.67C163.76 47.4367 164.077 47.1053 164.311 46.676C164.544 46.2373 164.661 45.7287 164.661 45.15ZM169.417 47.236L167.849 51.002H166.995L168.017 47.236H169.417ZM181.217 41.328L176.597 52.612H175.281L176.793 48.916L173.699 41.328H175.113L177.521 47.544L179.901 41.328H181.217ZM189.498 44.87C189.498 45.1127 189.484 45.3693 189.456 45.64H183.324C183.371 46.396 183.627 46.9887 184.094 47.418C184.57 47.838 185.144 48.048 185.816 48.048C186.367 48.048 186.824 47.922 187.188 47.67C187.561 47.4087 187.823 47.0633 187.972 46.634H189.344C189.139 47.3713 188.728 47.9733 188.112 48.44C187.496 48.8973 186.731 49.126 185.816 49.126C185.088 49.126 184.435 48.9627 183.856 48.636C183.287 48.3093 182.839 47.8473 182.512 47.25C182.185 46.6433 182.022 45.9433 182.022 45.15C182.022 44.3567 182.181 43.6613 182.498 43.064C182.815 42.4667 183.259 42.0093 183.828 41.692C184.407 41.3653 185.069 41.202 185.816 41.202C186.544 41.202 187.188 41.3607 187.748 41.678C188.308 41.9953 188.737 42.434 189.036 42.994C189.344 43.5447 189.498 44.17 189.498 44.87ZM188.182 44.604C188.182 44.1187 188.075 43.7033 187.86 43.358C187.645 43.0033 187.351 42.7373 186.978 42.56C186.614 42.3733 186.208 42.28 185.76 42.28C185.116 42.28 184.565 42.4853 184.108 42.896C183.66 43.3067 183.403 43.876 183.338 44.604H188.182ZM193.896 49.126C193.308 49.126 192.78 49.028 192.314 48.832C191.847 48.6267 191.478 48.3467 191.208 47.992C190.937 47.628 190.788 47.2127 190.76 46.746H192.076C192.113 47.1287 192.29 47.4413 192.608 47.684C192.934 47.9267 193.359 48.048 193.882 48.048C194.367 48.048 194.75 47.9407 195.03 47.726C195.31 47.5113 195.45 47.2407 195.45 46.914C195.45 46.578 195.3 46.3307 195.002 46.172C194.703 46.004 194.241 45.8407 193.616 45.682C193.046 45.5327 192.58 45.3833 192.216 45.234C191.861 45.0753 191.553 44.8467 191.292 44.548C191.04 44.24 190.914 43.8387 190.914 43.344C190.914 42.952 191.03 42.5927 191.264 42.266C191.497 41.9393 191.828 41.6827 192.258 41.496C192.687 41.3 193.177 41.202 193.728 41.202C194.577 41.202 195.263 41.4167 195.786 41.846C196.308 42.2753 196.588 42.8633 196.626 43.61H195.352C195.324 43.2087 195.16 42.8867 194.862 42.644C194.572 42.4013 194.18 42.28 193.686 42.28C193.228 42.28 192.864 42.378 192.594 42.574C192.323 42.77 192.188 43.0267 192.188 43.344C192.188 43.596 192.267 43.806 192.426 43.974C192.594 44.1327 192.799 44.2633 193.042 44.366C193.294 44.4593 193.639 44.5667 194.078 44.688C194.628 44.8373 195.076 44.9867 195.422 45.136C195.767 45.276 196.061 45.4907 196.304 45.78C196.556 46.0693 196.686 46.4473 196.696 46.914C196.696 47.334 196.579 47.712 196.346 48.048C196.112 48.384 195.781 48.65 195.352 48.846C194.932 49.0327 194.446 49.126 193.896 49.126ZM198.9 49.084C198.657 49.084 198.452 49 198.284 48.832C198.116 48.664 198.032 48.4587 198.032 48.216C198.032 47.9733 198.116 47.768 198.284 47.6C198.452 47.432 198.657 47.348 198.9 47.348C199.133 47.348 199.329 47.432 199.488 47.6C199.656 47.768 199.74 47.9733 199.74 48.216C199.74 48.4587 199.656 48.664 199.488 48.832C199.329 49 199.133 49.084 198.9 49.084Z" fill="#FFB1B1"/>
</svg>
