<svg width="308" height="62" viewBox="0 0 308 62" fill="none" xmlns="http://www.w3.org/2000/svg">
<g clip-path="url(#clip0)">
<path d="M100.088 27.9323C106.887 27.9323 111.592 24.0733 111.592 15.4415H99.6758V19.2666H106.372C106.338 19.4697 106.304 19.6728 106.235 19.842C105.617 22.2793 103.179 23.7348 100.088 23.7348C95.967 23.7348 92.7733 20.1467 92.7733 15.9831C92.7733 11.8195 95.967 8.36671 100.088 8.36671C102.148 8.36671 104.037 9.24683 105.376 10.6685L108.845 7.72355C106.784 5.45557 103.659 4 100.088 4C93.2884 4 88 9.34838 88 15.9831C88 22.5839 93.2884 27.9323 100.088 27.9323Z" fill="white"/>
<path d="M122.371 27.9323C126.938 27.9323 130.99 24.6827 130.99 19.7066C130.99 14.6968 126.938 11.4471 122.371 11.4471C117.804 11.4471 113.751 14.6968 113.751 19.7066C113.751 24.6827 117.804 27.9323 122.371 27.9323ZM122.371 23.8025C120.139 23.8025 118.319 22.1439 118.319 19.7066C118.319 17.2355 120.139 15.5769 122.371 15.5769C124.603 15.5769 126.423 17.2355 126.423 19.7066C126.423 22.1439 124.603 23.8025 122.371 23.8025Z" fill="white"/>
<path d="M147.171 27.6276H152.768L146.621 19.0296C150.605 18.2172 152.356 15.2384 152.356 11.921C152.356 8.09592 150.021 4.30466 144.595 4.30466H135.151V27.6276H139.925V19.2666H141.539L147.171 27.6276ZM139.925 8.46827H144.114C146.346 8.46827 147.548 10.1608 147.548 12.0226C147.548 13.8843 146.415 15.4753 143.737 15.4753H139.925V8.46827Z" fill="white"/>
<path d="M171.426 19.4697C171.426 14.6291 167.682 11.4471 163.115 11.4471C158.513 11.4471 154.599 14.6291 154.599 19.7405C154.599 24.615 158.204 27.9323 163.115 27.9323C165.931 27.9323 168.747 26.8491 170.258 24.8519L167.614 22.2454C166.652 23.3625 165.038 24.0056 163.424 24.0056C161.261 24.0056 159.75 22.9901 159.269 21.1622H171.357C171.391 20.4513 171.426 19.9097 171.426 19.4697ZM159.269 18.2849C159.75 16.1523 161.364 15.3061 163.184 15.3061C165.21 15.3061 166.79 16.4231 166.927 18.2849H159.269Z" fill="white"/>
<path d="M180.576 27.9323C183.873 27.9323 187.307 26.3075 187.307 22.9901C187.307 21.7038 186.826 19.3343 182.98 18.3188L180.336 17.6417C179.443 17.4048 178.756 17.0324 178.756 16.2877C178.756 15.4753 179.581 14.9676 180.611 14.9676C181.675 14.9676 182.568 15.543 182.568 16.5924H186.861C186.895 12.8688 183.461 11.4471 180.542 11.4471C176.833 11.4471 174.258 13.7151 174.258 16.1523C174.258 17.811 174.807 20.079 178.928 21.1622L181.057 21.67C182.259 21.9746 182.809 22.3131 182.809 22.9901C182.809 23.9041 181.813 24.4457 180.508 24.4457C178.928 24.4457 178.138 23.464 178.138 22.5501H173.914C173.949 26.0367 177.211 27.9323 180.576 27.9323Z" fill="white"/>
<path d="M200.216 11.8533H196.817V6.06488H192.318V11.8533H189.399V15.2722H192.318V27.6276H196.817V15.2722H200.216V11.8533Z" fill="white"/>
<path d="M214.899 11.8533V13.7489C213.766 12.158 211.602 11.481 209.748 11.481C205.627 11.481 201.884 14.6291 201.884 19.7066C201.884 24.7842 205.627 27.9323 209.748 27.9323C211.534 27.9323 213.766 27.2214 214.899 25.6643V27.6276H219.398V11.8533H214.899ZM210.606 23.8025C208.34 23.8025 206.451 22.0085 206.451 19.7066C206.451 17.3709 208.34 15.6446 210.606 15.6446C212.701 15.6446 214.762 17.2694 214.762 19.7066C214.762 22.11 212.804 23.8025 210.606 23.8025Z" fill="white"/>
<path d="M234.894 11.8533V19.9436C234.894 22.787 232.902 23.6333 231.288 23.6333C229.743 23.6333 228.232 22.5162 228.232 20.0451V11.8533H223.733V20.519C223.699 25.2581 225.897 28 230.086 28C231.666 28 234.207 27.1199 234.894 25.055V27.6276H239.393V11.8533H234.894Z" fill="white"/>
<path d="M253.096 11.4471C251.104 11.4471 249.284 12.5642 248.391 15.2045V11.8533H243.927V27.6276H248.425V22.2116C248.425 17.7094 250.005 15.6107 252.306 15.6107C252.855 15.6107 253.645 15.6784 254.607 16.1862L255.637 11.9549C254.916 11.5825 253.954 11.4471 253.096 11.4471Z" fill="white"/>
<path d="M269.73 11.8533V13.7489C268.597 12.158 266.433 11.481 264.579 11.481C260.458 11.481 256.715 14.6291 256.715 19.7066C256.715 24.7842 260.458 27.9323 264.579 27.9323C266.365 27.9323 268.597 27.2214 269.73 25.6643V27.6276H274.228V11.8533H269.73ZM265.437 23.8025C263.171 23.8025 261.282 22.0085 261.282 19.7066C261.282 17.3709 263.171 15.6446 265.437 15.6446C267.532 15.6446 269.593 17.2694 269.593 19.7066C269.593 22.11 267.635 23.8025 265.437 23.8025Z" fill="white"/>
<path d="M288.077 11.4471C286.497 11.4471 283.956 12.3611 283.269 14.4937V11.8533H278.77V27.6276H283.269V19.5374C283.269 16.6601 285.261 15.8138 286.875 15.8138C288.42 15.8138 289.931 16.9309 289.931 19.4358V27.6276H294.43V18.9619C294.464 14.2228 292.266 11.4471 288.077 11.4471Z" fill="white"/>
<path d="M308 11.8533H304.6V6.06488H300.102V11.8533H297.183V15.2722H300.102V27.6276H304.6V15.2722H308V11.8533Z" fill="white"/>
<path fill-rule="evenodd" clip-rule="evenodd" d="M32 16.3863C28.0372 16.3863 24.2897 15.7619 21.4481 14.6282C18.1848 13.3263 16.3875 11.4282 16.3876 9.28342C16.3876 7.13875 18.1849 5.24066 21.4482 3.93878C23.4813 3.12774 25.9794 2.57907 28.6871 2.33148C28.252 1.7631 28.2921 0.94524 28.8103 0.424548C29.3735 -0.141516 30.2867 -0.141516 30.85 0.424548L33.0197 2.60545C33.583 3.17152 33.583 4.0894 33.0197 4.65546L30.8499 6.83622C30.5683 7.11932 30.1991 7.2608 29.83 7.2608C29.4609 7.2608 29.0918 7.11932 28.8101 6.83622C28.3867 6.41048 28.2818 5.78585 28.4953 5.26153C26.2425 5.49927 24.1862 5.9656 22.5124 6.63342C20.1207 7.58754 19.2722 8.65734 19.2722 9.28342C19.2722 9.90949 20.1207 10.9793 22.5124 11.9334C25.0234 12.9352 28.3929 13.4869 32 13.4869C35.6071 13.4869 38.9766 12.9352 41.4877 11.9334C43.8793 10.9793 44.7279 9.90964 44.7279 9.28342C44.7279 8.26725 42.7568 6.76273 38.9897 5.85311C38.2152 5.66611 37.7382 4.88348 37.9242 4.10505C38.1102 3.32662 38.8892 2.8471 39.6635 3.03424C44.7153 4.25392 47.6125 6.53181 47.6125 9.28356C47.6125 11.4282 45.8152 13.3263 42.552 14.6282C39.7103 15.7619 35.9628 16.3863 32 16.3863ZM54.0449 22.9316C62.2728 25.5632 64 28.8933 64 31.2235C64 31.2615 63.9994 31.2998 63.9986 31.3382C63.9677 39.5286 60.6348 47.2209 54.6036 53.0091C48.5626 58.807 40.535 62 32 62C23.465 62 15.4376 58.807 9.39636 53.0091C3.36525 47.2209 0.0323082 39.5286 0.00144233 31.3382C0.000576933 31.2998 0 31.2615 0 31.2235C0 28.8933 1.72719 25.5632 9.95526 22.9314C15.8645 21.0416 23.6935 20.0008 32.0001 20.0008C37.5784 20.0008 42.9402 20.4709 47.651 21.3515L51.2414 15.8698C51.6795 15.2011 52.5738 15.0158 53.2392 15.456C53.9045 15.8963 54.0889 16.7952 53.6508 17.4639L50.6818 21.9969C51.8589 22.2804 52.9833 22.5921 54.0449 22.9316ZM61.1153 31.2235C61.1153 29.3804 58.071 27.2618 53.1701 25.6943C51.8716 25.279 50.4716 24.9072 48.9899 24.5802L43.0643 33.6274C47.4948 34.1688 51.5381 35.0324 54.8448 36.1683C58.7542 34.6827 61.1153 32.8463 61.1153 31.2235ZM14.3212 37.7103C19.4077 38.9025 25.5414 39.5469 32 39.5469C33.2755 39.5469 34.5381 39.5215 35.7825 39.472L38.0137 36.0656C36.0509 35.9376 34.0371 35.871 31.9996 35.871C25.5818 35.871 19.3965 36.5261 14.3212 37.7103ZM49.6789 37.7103C47.1254 37.1145 44.2905 36.6531 41.2866 36.3413L39.3765 39.2577C43.0908 38.96 46.5792 38.4368 49.6789 37.7103ZM31.9999 22.9001C23.9821 22.9001 16.4638 23.8925 10.8297 25.6943C5.92899 27.2616 2.88466 29.3804 2.88466 31.2235C2.88466 32.8465 5.2459 34.6828 9.15534 36.1683C15.077 34.134 23.3596 32.9717 31.9994 32.9717C34.6627 32.9717 37.2912 33.083 39.828 33.2953L45.9243 23.9876C41.688 23.2772 36.9391 22.9001 31.9999 22.9001ZM3.41054 36.5064C5.9962 49.3603 17.8318 59.1008 32 59.1008C46.1682 59.1008 58.0038 49.3605 60.5895 36.5064C59.0919 37.547 56.9831 38.5758 54.0449 39.5154C48.1358 41.4053 40.3067 42.4461 32 42.4461C23.6933 42.4461 15.8643 41.4053 9.95512 39.5154C7.01694 38.5757 4.90811 37.5469 3.41054 36.5064Z" fill="#FFB84D"/>
<path d="M90.352 49.242V59H89.078V49.242H90.352ZM94.0773 52.378V56.9C94.0773 57.2733 94.1566 57.5393 94.3153 57.698C94.474 57.8473 94.7493 57.922 95.1413 57.922H96.0793V59H94.9313C94.222 59 93.69 58.8367 93.3353 58.51C92.9806 58.1833 92.8033 57.6467 92.8033 56.9V52.378H91.8093V51.328H92.8033V49.396H94.0773V51.328H96.0793V52.378H94.0773ZM97.1469 55.136C97.1469 54.352 97.3056 53.666 97.6229 53.078C97.9403 52.4807 98.3743 52.0187 98.9249 51.692C99.4849 51.3653 100.106 51.202 100.787 51.202C101.459 51.202 102.042 51.3467 102.537 51.636C103.032 51.9253 103.4 52.2893 103.643 52.728V51.328H104.931V59H103.643V57.572C103.391 58.02 103.013 58.3933 102.509 58.692C102.014 58.9813 101.436 59.126 100.773 59.126C100.092 59.126 99.4756 58.958 98.9249 58.622C98.3743 58.286 97.9403 57.8147 97.6229 57.208C97.3056 56.6013 97.1469 55.9107 97.1469 55.136ZM103.643 55.15C103.643 54.5713 103.526 54.0673 103.293 53.638C103.06 53.2087 102.742 52.882 102.341 52.658C101.949 52.4247 101.515 52.308 101.039 52.308C100.563 52.308 100.129 52.42 99.7369 52.644C99.3449 52.868 99.0323 53.1947 98.7989 53.624C98.5656 54.0533 98.4489 54.5573 98.4489 55.136C98.4489 55.724 98.5656 56.2373 98.7989 56.676C99.0323 57.1053 99.3449 57.4367 99.7369 57.67C100.129 57.894 100.563 58.006 101.039 58.006C101.515 58.006 101.949 57.894 102.341 57.67C102.742 57.4367 103.06 57.1053 103.293 56.676C103.526 56.2373 103.643 55.7287 103.643 55.15ZM108.358 48.64V59H107.084V48.64H108.358ZM111.187 50.082C110.945 50.082 110.739 49.998 110.571 49.83C110.403 49.662 110.319 49.4567 110.319 49.214C110.319 48.9713 110.403 48.766 110.571 48.598C110.739 48.43 110.945 48.346 111.187 48.346C111.421 48.346 111.617 48.43 111.775 48.598C111.943 48.766 112.027 48.9713 112.027 49.214C112.027 49.4567 111.943 49.662 111.775 49.83C111.617 49.998 111.421 50.082 111.187 50.082ZM111.803 51.328V59H110.529V51.328H111.803ZM113.498 55.136C113.498 54.352 113.657 53.666 113.974 53.078C114.292 52.4807 114.726 52.0187 115.276 51.692C115.836 51.3653 116.457 51.202 117.138 51.202C117.81 51.202 118.394 51.3467 118.888 51.636C119.383 51.9253 119.752 52.2893 119.994 52.728V51.328H121.282V59H119.994V57.572C119.742 58.02 119.364 58.3933 118.86 58.692C118.366 58.9813 117.787 59.126 117.124 59.126C116.443 59.126 115.827 58.958 115.276 58.622C114.726 58.286 114.292 57.8147 113.974 57.208C113.657 56.6013 113.498 55.9107 113.498 55.136ZM119.994 55.15C119.994 54.5713 119.878 54.0673 119.644 53.638C119.411 53.2087 119.094 52.882 118.692 52.658C118.3 52.4247 117.866 52.308 117.39 52.308C116.914 52.308 116.48 52.42 116.088 52.644C115.696 52.868 115.384 53.1947 115.15 53.624C114.917 54.0533 114.8 54.5573 114.8 55.136C114.8 55.724 114.917 56.2373 115.15 56.676C115.384 57.1053 115.696 57.4367 116.088 57.67C116.48 57.894 116.914 58.006 117.39 58.006C117.866 58.006 118.3 57.894 118.692 57.67C119.094 57.4367 119.411 57.1053 119.644 56.676C119.878 56.2373 119.994 55.7287 119.994 55.15ZM127.173 51.188C128.107 51.188 128.863 51.4727 129.441 52.042C130.02 52.602 130.309 53.414 130.309 54.478V59H129.049V54.66C129.049 53.8947 128.858 53.3113 128.475 52.91C128.093 52.4993 127.57 52.294 126.907 52.294C126.235 52.294 125.699 52.504 125.297 52.924C124.905 53.344 124.709 53.9553 124.709 54.758V59H123.435V51.328H124.709V52.42C124.961 52.028 125.302 51.7247 125.731 51.51C126.17 51.2953 126.651 51.188 127.173 51.188ZM139.245 52.378H137.635V59H136.361V52.378H135.367V51.328H136.361V50.782C136.361 49.9233 136.58 49.298 137.019 48.906C137.467 48.5047 138.181 48.304 139.161 48.304V49.368C138.601 49.368 138.204 49.48 137.971 49.704C137.747 49.9187 137.635 50.278 137.635 50.782V51.328H139.245V52.378ZM144.076 59.126C143.358 59.126 142.704 58.9627 142.116 58.636C141.538 58.3093 141.08 57.8473 140.744 57.25C140.418 56.6433 140.254 55.9433 140.254 55.15C140.254 54.366 140.422 53.6753 140.758 53.078C141.104 52.4713 141.57 52.0093 142.158 51.692C142.746 51.3653 143.404 51.202 144.132 51.202C144.86 51.202 145.518 51.3653 146.106 51.692C146.694 52.0093 147.156 52.4667 147.492 53.064C147.838 53.6613 148.01 54.3567 148.01 55.15C148.01 55.9433 147.833 56.6433 147.478 57.25C147.133 57.8473 146.662 58.3093 146.064 58.636C145.467 58.9627 144.804 59.126 144.076 59.126ZM144.076 58.006C144.534 58.006 144.963 57.8987 145.364 57.684C145.766 57.4693 146.088 57.1473 146.33 56.718C146.582 56.2887 146.708 55.766 146.708 55.15C146.708 54.534 146.587 54.0113 146.344 53.582C146.102 53.1527 145.784 52.8353 145.392 52.63C145 52.4153 144.576 52.308 144.118 52.308C143.652 52.308 143.222 52.4153 142.83 52.63C142.448 52.8353 142.14 53.1527 141.906 53.582C141.673 54.0113 141.556 54.534 141.556 55.15C141.556 55.7753 141.668 56.3027 141.892 56.732C142.126 57.1613 142.434 57.4833 142.816 57.698C143.199 57.9033 143.619 58.006 144.076 58.006ZM153.031 59.126C152.313 59.126 151.659 58.9627 151.071 58.636C150.493 58.3093 150.035 57.8473 149.699 57.25C149.373 56.6433 149.209 55.9433 149.209 55.15C149.209 54.366 149.377 53.6753 149.713 53.078C150.059 52.4713 150.525 52.0093 151.113 51.692C151.701 51.3653 152.359 51.202 153.087 51.202C153.815 51.202 154.473 51.3653 155.061 51.692C155.649 52.0093 156.111 52.4667 156.447 53.064C156.793 53.6613 156.965 54.3567 156.965 55.15C156.965 55.9433 156.788 56.6433 156.433 57.25C156.088 57.8473 155.617 58.3093 155.019 58.636C154.422 58.9627 153.759 59.126 153.031 59.126ZM153.031 58.006C153.489 58.006 153.918 57.8987 154.319 57.684C154.721 57.4693 155.043 57.1473 155.285 56.718C155.537 56.2887 155.663 55.766 155.663 55.15C155.663 54.534 155.542 54.0113 155.299 53.582C155.057 53.1527 154.739 52.8353 154.347 52.63C153.955 52.4153 153.531 52.308 153.073 52.308C152.607 52.308 152.177 52.4153 151.785 52.63C151.403 52.8353 151.095 53.1527 150.861 53.582C150.628 54.0113 150.511 54.534 150.511 55.15C150.511 55.7753 150.623 56.3027 150.847 56.732C151.081 57.1613 151.389 57.4833 151.771 57.698C152.154 57.9033 152.574 58.006 153.031 58.006ZM158.165 55.136C158.165 54.352 158.323 53.666 158.641 53.078C158.958 52.4807 159.392 52.0187 159.943 51.692C160.503 51.3653 161.128 51.202 161.819 51.202C162.416 51.202 162.971 51.342 163.485 51.622C163.998 51.8927 164.39 52.252 164.661 52.7V48.64H165.949V59H164.661V57.558C164.409 58.0153 164.035 58.3933 163.541 58.692C163.046 58.9813 162.467 59.126 161.805 59.126C161.123 59.126 160.503 58.958 159.943 58.622C159.392 58.286 158.958 57.8147 158.641 57.208C158.323 56.6013 158.165 55.9107 158.165 55.136ZM164.661 55.15C164.661 54.5713 164.544 54.0673 164.311 53.638C164.077 53.2087 163.76 52.882 163.359 52.658C162.967 52.4247 162.533 52.308 162.057 52.308C161.581 52.308 161.147 52.42 160.755 52.644C160.363 52.868 160.05 53.1947 159.817 53.624C159.583 54.0533 159.467 54.5573 159.467 55.136C159.467 55.724 159.583 56.2373 159.817 56.676C160.05 57.1053 160.363 57.4367 160.755 57.67C161.147 57.894 161.581 58.006 162.057 58.006C162.533 58.006 162.967 57.894 163.359 57.67C163.76 57.4367 164.077 57.1053 164.311 56.676C164.544 56.2373 164.661 55.7287 164.661 55.15ZM169.417 57.236L167.849 61.002H166.995L168.017 57.236H169.417ZM181.217 51.328L176.597 62.612H175.281L176.793 58.916L173.699 51.328H175.113L177.521 57.544L179.901 51.328H181.217ZM189.498 54.87C189.498 55.1127 189.484 55.3693 189.456 55.64H183.324C183.371 56.396 183.627 56.9887 184.094 57.418C184.57 57.838 185.144 58.048 185.816 58.048C186.367 58.048 186.824 57.922 187.188 57.67C187.561 57.4087 187.823 57.0633 187.972 56.634H189.344C189.139 57.3713 188.728 57.9733 188.112 58.44C187.496 58.8973 186.731 59.126 185.816 59.126C185.088 59.126 184.435 58.9627 183.856 58.636C183.287 58.3093 182.839 57.8473 182.512 57.25C182.185 56.6433 182.022 55.9433 182.022 55.15C182.022 54.3567 182.181 53.6613 182.498 53.064C182.815 52.4667 183.259 52.0093 183.828 51.692C184.407 51.3653 185.069 51.202 185.816 51.202C186.544 51.202 187.188 51.3607 187.748 51.678C188.308 51.9953 188.737 52.434 189.036 52.994C189.344 53.5447 189.498 54.17 189.498 54.87ZM188.182 54.604C188.182 54.1187 188.075 53.7033 187.86 53.358C187.645 53.0033 187.351 52.7373 186.978 52.56C186.614 52.3733 186.208 52.28 185.76 52.28C185.116 52.28 184.565 52.4853 184.108 52.896C183.66 53.3067 183.403 53.876 183.338 54.604H188.182ZM193.896 59.126C193.308 59.126 192.78 59.028 192.314 58.832C191.847 58.6267 191.478 58.3467 191.208 57.992C190.937 57.628 190.788 57.2127 190.76 56.746H192.076C192.113 57.1287 192.29 57.4413 192.608 57.684C192.934 57.9267 193.359 58.048 193.882 58.048C194.367 58.048 194.75 57.9407 195.03 57.726C195.31 57.5113 195.45 57.2407 195.45 56.914C195.45 56.578 195.3 56.3307 195.002 56.172C194.703 56.004 194.241 55.8407 193.616 55.682C193.046 55.5327 192.58 55.3833 192.216 55.234C191.861 55.0753 191.553 54.8467 191.292 54.548C191.04 54.24 190.914 53.8387 190.914 53.344C190.914 52.952 191.03 52.5927 191.264 52.266C191.497 51.9393 191.828 51.6827 192.258 51.496C192.687 51.3 193.177 51.202 193.728 51.202C194.577 51.202 195.263 51.4167 195.786 51.846C196.308 52.2753 196.588 52.8633 196.626 53.61H195.352C195.324 53.2087 195.16 52.8867 194.862 52.644C194.572 52.4013 194.18 52.28 193.686 52.28C193.228 52.28 192.864 52.378 192.594 52.574C192.323 52.77 192.188 53.0267 192.188 53.344C192.188 53.596 192.267 53.806 192.426 53.974C192.594 54.1327 192.799 54.2633 193.042 54.366C193.294 54.4593 193.639 54.5667 194.078 54.688C194.628 54.8373 195.076 54.9867 195.422 55.136C195.767 55.276 196.061 55.4907 196.304 55.78C196.556 56.0693 196.686 56.4473 196.696 56.914C196.696 57.334 196.579 57.712 196.346 58.048C196.112 58.384 195.781 58.65 195.352 58.846C194.932 59.0327 194.446 59.126 193.896 59.126ZM198.9 59.084C198.657 59.084 198.452 59 198.284 58.832C198.116 58.664 198.032 58.4587 198.032 58.216C198.032 57.9733 198.116 57.768 198.284 57.6C198.452 57.432 198.657 57.348 198.9 57.348C199.133 57.348 199.329 57.432 199.488 57.6C199.656 57.768 199.74 57.9733 199.74 58.216C199.74 58.4587 199.656 58.664 199.488 58.832C199.329 59 199.133 59.084 198.9 59.084Z" fill="#FFB1B1"/>
</g>
<defs>
<clipPath id="clip0">
<rect width="308" height="62" fill="white"/>
</clipPath>
</defs>
</svg>
